<svg width="19" height="17" viewBox="0 0 19 17" fill="none" xmlns="http://www.w3.org/2000/svg">
<path d="M14.3997 5.93164L10.6547 8.97664C10.3123 9.2494 9.88752 9.39792 9.44975 9.39792C9.01198 9.39792 8.58716 9.2494 8.24475 8.97664L4.46875 5.93164" stroke="#868B96" stroke-width="1.2" stroke-linecap="round" stroke-linejoin="round"/>
<path fill-rule="evenodd" clip-rule="evenodd" d="M13.5643 16.17C14.1589 16.1598 14.7451 16.0286 15.2873 15.7843C15.8295 15.54 16.3162 15.1879 16.7177 14.7493C17.1193 14.3107 17.4272 13.7948 17.6228 13.2333C17.8184 12.6717 17.8975 12.0762 17.8553 11.483V5.69501C17.8972 5.10152 17.8179 4.50572 17.6223 3.94383C17.4267 3.38195 17.1189 2.86573 16.7175 2.42656C16.3161 1.98739 15.8296 1.63445 15.2875 1.38921C14.7454 1.14397 14.1592 1.01154 13.5643 1H5.29032C4.69547 1.01154 4.10919 1.14397 3.56712 1.38921C3.02506 1.63445 2.53854 1.98739 2.13716 2.42656C1.73578 2.86573 1.42793 3.38195 1.23232 3.94383C1.03671 4.50572 0.957436 5.10152 0.999319 5.69501V11.483C0.957115 12.0762 1.03622 12.6717 1.23181 13.2333C1.42739 13.7948 1.73535 14.3107 2.1369 14.7493C2.53845 15.1879 3.02516 15.54 3.56733 15.7843C4.10949 16.0286 4.69575 16.1598 5.29032 16.17H13.5643Z" stroke="#868B96" stroke-width="1.2" stroke-linecap="round" stroke-linejoin="round"/>
</svg>
