<svg width="202" height="55" viewBox="0 0 202 55" fill="none" xmlns="http://www.w3.org/2000/svg">
<path d="M174.5 0H27.5C12.3122 0 0 12.3122 0 27.5C0 42.6878 12.3122 55 27.5 55H174.5C189.688 55 202 42.6878 202 27.5C202 12.3122 189.688 0 174.5 0Z" fill="#C2E9F3"/>
<path d="M75.764 34V21.4H77.708V32.128H83.612V34H75.764ZM89.9678 34.18C89.0438 34.18 88.2158 33.97 87.4838 33.55C86.7638 33.118 86.1938 32.536 85.7738 31.804C85.3538 31.06 85.1438 30.214 85.1438 29.266C85.1438 28.318 85.3538 27.478 85.7738 26.746C86.1938 26.002 86.7638 25.42 87.4838 25C88.2158 24.568 89.0438 24.352 89.9678 24.352C90.8798 24.352 91.6958 24.568 92.4158 25C93.1478 25.42 93.7238 26.002 94.1438 26.746C94.5638 27.478 94.7738 28.318 94.7738 29.266C94.7738 30.214 94.5638 31.06 94.1438 31.804C93.7238 32.536 93.1478 33.118 92.4158 33.55C91.6958 33.97 90.8798 34.18 89.9678 34.18ZM89.9678 32.488C90.5318 32.488 91.0358 32.35 91.4798 32.074C91.9238 31.786 92.2718 31.402 92.5238 30.922C92.7758 30.43 92.8958 29.878 92.8838 29.266C92.8958 28.642 92.7758 28.09 92.5238 27.61C92.2718 27.118 91.9238 26.734 91.4798 26.458C91.0358 26.182 90.5318 26.044 89.9678 26.044C89.4038 26.044 88.8938 26.188 88.4378 26.476C87.9938 26.752 87.6458 27.136 87.3938 27.628C87.1418 28.108 87.0218 28.654 87.0338 29.266C87.0218 29.878 87.1418 30.43 87.3938 30.922C87.6458 31.402 87.9938 31.786 88.4378 32.074C88.8938 32.35 89.4038 32.488 89.9678 32.488ZM101.024 38.14C100.352 38.14 99.68 38.032 99.008 37.816C98.348 37.612 97.814 37.342 97.406 37.006L98.09 35.566C98.45 35.842 98.894 36.064 99.422 36.232C99.962 36.4 100.496 36.484 101.024 36.484C101.684 36.484 102.236 36.376 102.68 36.16C103.124 35.944 103.46 35.626 103.688 35.206C103.916 34.786 104.03 34.264 104.03 33.64V31.822L104.228 31.948C104.168 32.32 103.97 32.68 103.634 33.028C103.31 33.364 102.902 33.64 102.41 33.856C101.918 34.072 101.414 34.18 100.898 34.18C99.998 34.18 99.194 33.97 98.486 33.55C97.79 33.118 97.238 32.536 96.83 31.804C96.422 31.06 96.218 30.214 96.218 29.266C96.218 28.318 96.416 27.478 96.812 26.746C97.22 26.002 97.772 25.42 98.468 25C99.176 24.568 99.968 24.352 100.844 24.352C101.204 24.352 101.552 24.4 101.888 24.496C102.224 24.58 102.536 24.706 102.824 24.874C103.112 25.03 103.37 25.204 103.598 25.396C103.826 25.588 104.012 25.792 104.156 26.008C104.3 26.224 104.39 26.428 104.426 26.62L104.03 26.764V24.55H105.884V33.424C105.884 34.18 105.77 34.846 105.542 35.422C105.326 36.01 105.008 36.502 104.588 36.898C104.168 37.306 103.658 37.612 103.058 37.816C102.458 38.032 101.78 38.14 101.024 38.14ZM101.096 32.47C101.684 32.47 102.206 32.332 102.662 32.056C103.118 31.78 103.472 31.402 103.724 30.922C103.976 30.442 104.102 29.89 104.102 29.266C104.102 28.642 103.97 28.09 103.706 27.61C103.454 27.118 103.1 26.734 102.644 26.458C102.2 26.182 101.684 26.044 101.096 26.044C100.52 26.044 100.004 26.188 99.548 26.476C99.104 26.752 98.75 27.136 98.486 27.628C98.234 28.108 98.108 28.654 98.108 29.266C98.108 29.878 98.234 30.43 98.486 30.922C98.75 31.402 99.104 31.78 99.548 32.056C100.004 32.332 100.52 32.47 101.096 32.47ZM113.834 34V24.55H115.688V34H113.834ZM114.734 22.462C114.338 22.462 114.032 22.36 113.816 22.156C113.6 21.952 113.492 21.664 113.492 21.292C113.492 20.944 113.6 20.662 113.816 20.446C114.044 20.23 114.35 20.122 114.734 20.122C115.13 20.122 115.436 20.224 115.652 20.428C115.868 20.632 115.976 20.92 115.976 21.292C115.976 21.64 115.862 21.922 115.634 22.138C115.418 22.354 115.118 22.462 114.734 22.462ZM118.538 34V24.55H120.392V26.494L120.068 26.71C120.188 26.29 120.422 25.906 120.77 25.558C121.118 25.198 121.532 24.91 122.012 24.694C122.492 24.466 122.984 24.352 123.488 24.352C124.208 24.352 124.808 24.496 125.288 24.784C125.768 25.06 126.128 25.486 126.368 26.062C126.608 26.638 126.728 27.364 126.728 28.24V34H124.874V28.366C124.874 27.826 124.802 27.382 124.658 27.034C124.514 26.674 124.292 26.416 123.992 26.26C123.692 26.092 123.32 26.02 122.876 26.044C122.516 26.044 122.186 26.104 121.886 26.224C121.586 26.332 121.322 26.488 121.094 26.692C120.878 26.896 120.704 27.136 120.572 27.412C120.452 27.676 120.392 27.964 120.392 28.276V34H119.474C119.318 34 119.162 34 119.006 34C118.85 34 118.694 34 118.538 34Z" fill="#11345A"/>
</svg>
