<svg width="684" height="464" viewBox="0 0 684 464" fill="none" xmlns="http://www.w3.org/2000/svg">
<g opacity="0.35">
<path d="M656.885 359.712C645.437 318.751 681.828 317.17 682.628 264.39C682.956 242.803 671.098 220.818 642.572 210.734C628.553 205.778 614.577 202.371 602.103 194.491C573.677 176.532 574.19 142.362 566.435 113.233C549.404 49.2518 415.987 -1.61423 349.641 0.0391952C301.813 1.22991 279.748 24.2237 236.143 64.7172C206.309 92.4244 153.741 89.9119 169.059 161.498C182.702 225.26 150.516 220.525 121.041 244.065C91.6284 267.555 70.0896 295.575 81.7953 327.378C94.704 362.447 15.6883 382.573 1.59663 428.031C-7.96121 458.865 42.2464 461.47 76.4156 461.47C110.585 461.47 402.935 458.848 526.59 462.496C559.871 463.478 666.059 472.52 681.08 431.136C691.304 402.969 664.879 388.317 656.885 359.712Z" fill="#C3ECFE"/>
</g>
<path d="M648.7 321.549C627.243 371.486 585.904 412.242 536.349 434.339" stroke="#C3ECFE" stroke-width="1.87036" stroke-miterlimit="10"/>
<path d="M642.404 334.834C649.898 328.597 655.026 319.585 656.56 309.958C656.936 307.598 657.013 304.911 655.427 303.124C654.991 302.632 654.415 302.227 653.761 302.16C652.708 302.054 651.782 302.827 651.079 303.618C647.352 307.807 646.059 313.599 645.419 319.17C644.779 324.74 643.56 328.827 642.404 334.834Z" fill="#C3ECFE"/>
<path d="M632.214 351.846C636.619 343.149 637.752 332.841 635.344 323.394C634.753 321.079 633.758 318.581 631.592 317.57C630.997 317.292 630.307 317.147 629.68 317.346C628.672 317.665 628.128 318.743 627.796 319.748C626.036 325.071 627.147 330.903 628.767 336.269C630.391 341.639 630.893 345.872 632.214 351.846Z" fill="#C3ECFE"/>
<path d="M617.217 372.773C622.652 364.679 625.038 354.589 623.802 344.918C623.5 342.548 622.816 339.947 620.792 338.678C620.234 338.329 619.567 338.102 618.921 338.223C617.881 338.417 617.211 339.421 616.758 340.377C614.36 345.446 614.749 351.368 615.703 356.893C616.656 362.418 616.637 366.683 617.217 372.773Z" fill="#C3ECFE"/>
<path d="M599.987 391.109C605.422 383.016 607.808 372.925 606.571 363.254C606.268 360.884 605.586 358.283 603.561 357.015C603.004 356.665 602.336 356.439 601.691 356.558C600.65 356.753 599.98 357.756 599.528 358.712C597.13 363.78 597.519 369.703 598.472 375.228C599.426 380.755 599.405 385.019 599.987 391.109Z" fill="#C3ECFE"/>
<path d="M574.183 412.273C580.428 404.786 583.845 394.997 583.618 385.25C583.562 382.861 583.152 380.203 581.27 378.731C580.753 378.327 580.112 378.032 579.457 378.084C578.403 378.17 577.631 379.098 577.082 380.003C574.172 384.795 573.945 390.727 574.321 396.322C574.696 401.915 574.235 406.154 574.183 412.273Z" fill="#C3ECFE"/>
<path d="M553.958 425.789C560.101 419.122 564.067 409.826 564.908 400.123C565.113 397.745 565.045 395.057 563.589 393.367C563.189 392.902 562.672 392.53 562.105 392.502C561.194 392.458 560.434 393.285 559.869 394.115C556.868 398.515 556.043 404.374 555.772 409.972C555.498 415.574 554.654 419.724 553.958 425.789Z" fill="#C3ECFE"/>
<path d="M627.106 359.339C636.995 360.969 647.663 358.922 656.554 353.689C658.733 352.406 660.992 350.673 661.454 348.256C661.58 347.592 661.548 346.876 661.188 346.327C660.606 345.443 659.382 345.243 658.285 345.227C652.474 345.14 646.888 348.004 641.902 351.223C636.915 354.443 632.781 356.226 627.106 359.339Z" fill="#C3ECFE"/>
<path d="M614.995 375.172C624.209 379.116 635.056 379.676 644.94 376.716C647.362 375.991 649.969 374.847 650.994 372.611C651.276 371.996 651.415 371.292 651.197 370.673C650.843 369.675 649.701 369.189 648.64 368.913C643.017 367.441 636.91 368.889 631.299 370.825C625.688 372.76 621.248 373.505 614.995 375.172Z" fill="#C3ECFE"/>
<path d="M596.895 393.639C605.133 399.347 615.649 402.064 625.925 401.142C628.444 400.916 631.226 400.316 632.678 398.33C633.077 397.784 633.355 397.123 633.264 396.474C633.117 395.425 632.096 394.721 631.112 394.237C625.897 391.669 619.623 391.867 613.738 392.64C607.855 393.415 603.356 393.256 596.895 393.639Z" fill="#C3ECFE"/>
<path d="M571.58 414.966C580.88 418.704 591.736 419.023 601.552 415.843C603.958 415.064 606.538 413.863 607.513 411.603C607.782 410.982 607.905 410.276 607.671 409.661C607.295 408.672 606.143 408.213 605.076 407.957C599.422 406.611 593.349 408.194 587.782 410.255C582.217 412.316 577.794 413.159 571.58 414.966Z" fill="#C3ECFE"/>
<path d="M551.108 427.188C557.729 434.712 567.281 439.883 577.476 441.463C579.975 441.851 582.82 441.94 584.708 440.361C585.226 439.927 585.656 439.353 585.724 438.699C585.834 437.646 585.013 436.717 584.173 436.009C579.73 432.262 573.594 430.941 567.697 430.275C561.799 429.61 557.47 428.372 551.108 427.188Z" fill="#C3ECFE"/>
<path d="M527.369 216.496C527.105 216.482 526.888 216.274 526.869 216.004L526.681 213.334C526.66 213.042 526.88 212.789 527.173 212.768C527.461 212.74 527.716 212.967 527.738 213.26L527.926 215.93C527.947 216.222 527.727 216.476 527.434 216.496C527.413 216.496 527.391 216.496 527.369 216.496Z" fill="#599FD2"/>
<path d="M539.365 337.864L532.306 338.361L524.453 224.557L527.982 224.309L531.512 224.062L539.365 337.864Z" fill="#C3ECFE"/>
<path d="M528.036 214.859L526.61 214.96L524.454 224.558L531.513 224.062L528.036 214.859Z" fill="#C3ECFE"/>
<path d="M182.677 243.182C195.228 311.773 243.049 372.93 306.59 401.651" stroke="#C3ECFE" stroke-width="1.87036" stroke-miterlimit="10"/>
<path d="M185.856 257.538C179.941 249.787 176.951 239.859 177.603 230.131C177.762 227.746 178.286 225.109 180.231 223.721C180.766 223.34 181.418 223.072 182.071 223.153C183.121 223.285 183.851 224.246 184.36 225.172C187.059 230.087 187.029 236.023 186.411 241.595C185.792 247.167 186.068 251.423 185.856 257.538Z" fill="#C3ECFE"/>
<path d="M191.996 276.393C189.641 266.932 190.833 256.631 195.288 247.96C196.38 245.835 197.908 243.622 200.244 243.118C200.886 242.98 201.591 242.994 202.157 243.326C203.069 243.864 203.358 245.034 203.458 246.088C203.987 251.67 201.605 257.106 198.827 261.978C196.049 266.848 194.615 270.864 191.996 276.393Z" fill="#C3ECFE"/>
<path d="M201.945 300.135C198.451 291.033 198.376 280.665 201.737 271.513C202.56 269.271 203.806 266.888 206.063 266.102C206.683 265.886 207.386 265.814 207.987 266.075C208.958 266.497 209.388 267.624 209.616 268.657C210.823 274.133 209.123 279.82 206.963 284.994C204.801 290.166 203.869 294.328 201.945 300.135Z" fill="#C3ECFE"/>
<path d="M214.654 321.852C211.16 312.75 211.083 302.381 214.445 293.23C215.269 290.987 216.515 288.604 218.772 287.819C219.392 287.602 220.094 287.53 220.696 287.792C221.666 288.213 222.096 289.341 222.324 290.374C223.531 295.849 221.832 301.537 219.671 306.71C217.509 311.884 216.578 316.045 214.654 321.852Z" fill="#C3ECFE"/>
<path d="M235.094 348.236C230.676 339.544 229.527 329.239 231.922 319.79C232.509 317.473 233.501 314.975 235.664 313.96C236.259 313.68 236.949 313.535 237.576 313.733C238.585 314.051 239.13 315.128 239.463 316.132C241.231 321.453 240.129 327.286 238.516 332.655C236.902 338.025 236.407 342.261 235.094 348.236Z" fill="#C3ECFE"/>
<path d="M251.794 365.92C247.292 358.052 245.499 348.104 246.844 338.46C247.173 336.097 247.84 333.492 249.635 332.168C250.13 331.804 250.716 331.557 251.275 331.656C252.174 331.816 252.729 332.792 253.096 333.728C255.04 338.687 254.536 344.582 253.553 350.1C252.572 355.618 252.47 359.853 251.794 365.92Z" fill="#C3ECFE"/>
<path d="M195.302 284.833C185.299 284.216 175.356 279.843 167.856 272.759C166.018 271.023 164.203 268.83 164.291 266.371C164.315 265.695 164.506 265.004 164.981 264.549C165.745 263.817 166.983 263.896 168.056 264.124C173.741 265.335 178.546 269.373 182.69 273.623C186.832 277.873 190.464 280.533 195.302 284.833Z" fill="#C3ECFE"/>
<path d="M203.583 302.972C193.722 304.762 183.022 302.889 174.048 297.8C171.849 296.552 169.562 294.857 169.061 292.448C168.924 291.786 168.944 291.069 169.296 290.514C169.863 289.621 171.085 289.403 172.18 289.368C177.99 289.188 183.62 291.959 188.658 295.098C193.697 298.235 197.859 299.951 203.583 302.972Z" fill="#C3ECFE"/>
<path d="M217.104 325.01C207.801 328.737 196.942 329.042 187.131 325.85C184.726 325.069 182.147 323.865 181.175 321.604C180.908 320.982 180.784 320.276 181.018 319.662C181.394 318.674 182.547 318.215 183.615 317.962C189.27 316.624 195.342 318.213 200.906 320.28C206.47 322.347 210.891 323.196 217.104 325.01Z" fill="#C3ECFE"/>
<path d="M237.027 351.442C227.129 353.013 216.474 350.901 207.615 345.615C205.443 344.319 203.194 342.573 202.749 340.153C202.626 339.488 202.663 338.771 203.027 338.225C203.613 337.344 204.839 337.152 205.936 337.143C211.749 337.092 217.315 339.988 222.282 343.239C227.249 346.488 231.372 348.295 237.027 351.442Z" fill="#C3ECFE"/>
<path d="M254.264 367.921C246.132 373.779 235.668 376.691 225.377 375.958C222.856 375.778 220.062 375.23 218.572 373.272C218.163 372.733 217.874 372.077 217.952 371.425C218.08 370.375 219.088 369.652 220.063 369.149C225.23 366.487 231.505 366.567 237.404 367.233C243.301 367.898 247.797 367.656 254.264 367.921Z" fill="#C3ECFE"/>
<path d="M58.9902 338.96C128.649 335.782 198.984 368.643 241.244 424.109" stroke="#C3ECFE" stroke-width="1.87036" stroke-miterlimit="10"/>
<path d="M73.6883 338.833C64.8078 334.812 54.4611 334.128 45.1281 336.946C42.8401 337.638 40.3884 338.742 39.4727 340.948C39.2202 341.554 39.1061 342.25 39.333 342.868C39.6969 343.861 40.7966 344.357 41.8157 344.645C47.2106 346.172 52.9881 344.808 58.2796 342.954C63.5698 341.099 67.7778 340.413 73.6883 338.833Z" fill="#C3ECFE"/>
<path d="M93.4392 340.58C83.6913 340.41 73.922 343.885 66.4728 350.174C64.6467 351.716 62.8341 353.702 62.8676 356.09C62.877 356.747 63.0489 357.432 63.5001 357.908C64.2278 358.676 65.4349 358.695 66.4835 358.555C72.0409 357.817 76.8047 354.275 80.9268 350.474C85.0488 346.673 88.6391 344.374 93.4392 340.58Z" fill="#C3ECFE"/>
<path d="M118.811 344.941C109.157 343.581 99.0363 345.837 90.8741 351.167C88.8735 352.474 86.8313 354.223 86.5735 356.598C86.5023 357.251 86.5882 357.952 86.979 358.479C87.6073 359.331 88.8023 359.496 89.8604 359.486C95.4674 359.433 100.627 356.499 105.183 353.231C109.739 349.963 113.584 348.121 118.811 344.941Z" fill="#C3ECFE"/>
<path d="M142.825 352.446C133.171 351.086 123.05 353.342 114.888 358.673C112.888 359.979 110.845 361.728 110.586 364.104C110.515 364.756 110.601 365.457 110.992 365.985C111.62 366.836 112.815 367.001 113.873 366.992C119.48 366.938 124.64 364.004 129.196 360.736C133.753 357.469 137.598 355.627 142.825 352.446Z" fill="#C3ECFE"/>
<path d="M173.132 366.438C163.671 364.086 153.371 365.281 144.7 369.737C142.575 370.83 140.362 372.358 139.86 374.693C139.722 375.335 139.735 376.041 140.068 376.607C140.605 377.518 141.777 377.807 142.83 377.906C148.412 378.434 153.848 376.051 158.718 373.271C163.588 370.493 167.604 369.059 173.132 366.438Z" fill="#C3ECFE"/>
<path d="M194.115 378.737C185.437 376.117 175.34 376.605 166.245 380.081C164.016 380.932 161.627 382.167 160.741 384.215C160.498 384.777 160.388 385.406 160.611 385.927C160.968 386.767 162.045 387.088 163.039 387.236C168.307 388.016 173.94 386.202 179.096 384.004C184.25 381.807 188.354 380.757 194.115 378.737Z" fill="#C3ECFE"/>
<path d="M102.407 341.904C99.5604 332.295 93.0645 323.589 84.4767 317.872C82.3713 316.47 79.8269 315.194 77.4517 315.834C76.7992 316.009 76.1681 316.35 75.8311 316.914C75.2887 317.823 75.6445 319.012 76.1077 320.005C78.5648 325.273 83.5771 329.05 88.6497 332.131C93.7237 335.214 97.1315 338.156 102.407 341.904Z" fill="#C3ECFE"/>
<path d="M121.944 345.897C121.473 335.886 117.244 325.881 110.27 318.28C108.561 316.416 106.393 314.57 103.934 314.624C103.258 314.638 102.564 314.82 102.102 315.287C101.36 316.04 101.42 317.28 101.634 318.355C102.763 324.057 106.729 328.921 110.918 333.125C115.107 337.328 117.715 340.998 121.944 345.897Z" fill="#C3ECFE"/>
<path d="M146.456 354.125C147.998 344.221 145.856 333.573 140.543 324.73C139.241 322.561 137.488 320.319 135.068 319.88C134.402 319.759 133.686 319.798 133.141 320.163C132.261 320.753 132.073 321.978 132.067 323.075C132.032 328.888 134.945 334.447 138.209 339.404C141.472 344.361 143.293 348.479 146.456 354.125Z" fill="#C3ECFE"/>
<path d="M176.69 367.603C175.997 357.605 171.546 347.696 164.404 340.251C162.653 338.426 160.447 336.628 157.989 336.736C157.314 336.765 156.623 336.961 156.172 337.439C155.446 338.208 155.534 339.446 155.771 340.518C157.026 346.193 161.1 350.968 165.382 355.078C169.665 359.188 172.353 362.8 176.69 367.603Z" fill="#C3ECFE"/>
<path d="M196.619 380.691C200.501 371.451 200.987 360.599 197.962 350.737C197.22 348.32 196.059 345.721 193.815 344.71C193.199 344.432 192.494 344.298 191.877 344.521C190.882 344.88 190.404 346.026 190.132 347.089C188.698 352.722 190.186 358.819 192.16 364.417C194.135 370.014 194.91 374.449 196.619 380.691Z" fill="#C3ECFE"/>
<path d="M279.135 368.433C269.046 358.998 254.794 354.185 241.049 355.573C231.74 356.513 221.589 361.488 219.54 370.617C218.564 374.964 218.906 380.732 214.791 382.44C210.763 384.112 206.873 379.963 202.738 378.576C195.855 376.267 188.001 384.136 190.322 391.015C191.377 394.142 194.025 396.868 193.805 400.161C193.506 404.647 187.962 406.985 183.52 406.288C179.078 405.591 175.158 402.998 170.801 401.889C166.444 400.78 160.802 401.892 159.273 406.119C157.902 409.908 160.267 414.998 157.292 417.715C156.018 418.879 154.173 419.12 152.454 419.282C114.733 422.863 73.189 429.63 77.4104 436.332C78.5651 438.163 81.5136 437.58 83.678 437.547C163.967 436.29 236.898 435.092 317.16 437.555" fill="#C3ECFE"/>
<path d="M548.949 320.752L536.835 318.564L555.651 214.377C555.806 213.523 556.622 212.957 557.476 213.111L566.499 214.741C567.353 214.896 567.919 215.712 567.765 216.566L548.949 320.752Z" fill="#88D2FF"/>
<path d="M565.955 226.579L553.842 224.391L555.65 214.379C555.805 213.525 556.621 212.958 557.475 213.113L566.498 214.743C567.351 214.897 567.919 215.714 567.764 216.567L565.955 226.579Z" fill="#FE7D90"/>
<g opacity="0.5">
<path d="M553.836 224.381L553.181 228.008L565.296 230.196L565.951 226.569L553.836 224.381Z" fill="#599FD2"/>
</g>
<path d="M600.563 237.68L580.795 229.888L538.638 336.838L558.406 344.63L600.563 237.68Z" fill="#C3ECFE"/>
<path d="M592.705 238.595L599.221 241.164" stroke="#CCF3FF" stroke-width="1.87036" stroke-miterlimit="10"/>
<path d="M590.514 244.15L597.028 246.718" stroke="#CCF3FF" stroke-width="1.87036" stroke-miterlimit="10"/>
<path d="M588.326 249.706L594.841 252.274" stroke="#CCF3FF" stroke-width="1.87036" stroke-miterlimit="10"/>
<path d="M582.948 254.006L592.652 257.831" stroke="#CCF3FF" stroke-width="1.87036" stroke-miterlimit="10"/>
<path d="M583.946 260.816L590.462 263.385" stroke="#CCF3FF" stroke-width="1.87036" stroke-miterlimit="10"/>
<path d="M581.756 266.372L588.272 268.941" stroke="#CCF3FF" stroke-width="1.87036" stroke-miterlimit="10"/>
<path d="M579.566 271.929L586.082 274.496" stroke="#CCF3FF" stroke-width="1.87036" stroke-miterlimit="10"/>
<path d="M574.191 276.228L583.894 280.052" stroke="#CCF3FF" stroke-width="1.87036" stroke-miterlimit="10"/>
<path d="M575.188 283.04L581.702 285.608" stroke="#CCF3FF" stroke-width="1.87036" stroke-miterlimit="10"/>
<path d="M572.997 288.594L579.513 291.161" stroke="#CCF3FF" stroke-width="1.87036" stroke-miterlimit="10"/>
<path d="M570.81 294.15L577.326 296.718" stroke="#CCF3FF" stroke-width="1.87036" stroke-miterlimit="10"/>
<path d="M565.433 298.449L575.136 302.275" stroke="#CCF3FF" stroke-width="1.87036" stroke-miterlimit="10"/>
<path d="M566.431 305.261L572.945 307.829" stroke="#CCF3FF" stroke-width="1.87036" stroke-miterlimit="10"/>
<path d="M564.238 310.817L570.753 313.385" stroke="#CCF3FF" stroke-width="1.87036" stroke-miterlimit="10"/>
<path d="M562.049 316.373L568.564 318.94" stroke="#CCF3FF" stroke-width="1.87036" stroke-miterlimit="10"/>
<path d="M556.672 320.672L566.374 324.496" stroke="#CCF3FF" stroke-width="1.87036" stroke-miterlimit="10"/>
<path d="M557.669 327.484L564.185 330.051" stroke="#CCF3FF" stroke-width="1.87036" stroke-miterlimit="10"/>
<path d="M555.479 333.038L561.996 335.607" stroke="#CCF3FF" stroke-width="1.87036" stroke-miterlimit="10"/>
<path d="M553.29 338.594L559.806 341.163" stroke="#CCF3FF" stroke-width="1.87036" stroke-miterlimit="10"/>
<path d="M572.884 442.285H474.307L457.75 293.162C457.54 291.266 459.025 289.607 460.933 289.607H586.261C588.169 289.607 589.653 291.266 589.442 293.162L572.884 442.285Z" fill="#9BDFFF"/>
<path d="M449.268 448.784C508.643 449.593 568.018 450.402 627.394 451.211C629.387 451.237 635.666 449.295 624.844 442.315C615.678 436.405 586.707 441.722 586.707 441.722C586.707 441.722 593.451 439.018 593.419 435.529C593.388 432.04 590.743 428.973 587.567 427.526C584.392 426.078 580.776 425.974 577.292 426.172C570.202 426.578 563.182 428.149 556.596 430.803C559.39 429.085 560.242 424.871 558.336 422.202C556.429 419.533 552.166 418.973 549.635 421.058C554.085 415.032 560.965 388.325 539.821 376.553C513.32 361.8 493.193 373.94 488.899 382.82C486.721 374.104 476.721 367.505 470.135 365.87C455.114 362.14 445.329 363.246 431.306 369.794C426.345 372.11 419.702 380.023 416.405 384.393C411.239 391.238 410.434 400.342 410.15 408.912C409.937 415.345 409.907 421.783 410.063 428.217" fill="#CCF3FF"/>
<path opacity="0.4" d="M483.968 458.275C483.968 461.352 424.167 463.848 350.397 463.848C276.627 463.848 216.825 461.353 216.825 458.275C216.825 455.196 276.627 452.701 350.397 452.701C424.167 452.701 483.968 455.197 483.968 458.275Z" fill="#A1D7E5"/>
<path d="M352.936 69.4922C345.533 69.4922 339.532 75.494 339.532 82.8962V100.076H366.342C366.342 100.076 366.342 86.4315 366.342 82.8962C366.342 75.494 360.34 69.4922 352.936 69.4922ZM352.936 90.5898C348.783 90.5898 345.416 87.2223 345.416 83.0694C345.416 78.9165 348.782 75.549 352.936 75.549C357.091 75.549 360.457 78.9165 360.457 83.0694C360.458 87.2237 357.091 90.5898 352.936 90.5898Z" fill="#11345A"/>
<g opacity="0.45">
<path d="M360.458 83.071C360.458 78.9181 357.091 75.5507 352.938 75.5507C352.551 75.5507 352.179 75.6084 351.808 75.6648C352.938 75.2284 352.994 74.9344 354.86 74.9344C359.013 74.9344 362.381 78.3018 362.381 82.4547C362.381 86.221 360.459 88.2618 357.556 89.007C359.166 87.6268 360.458 85.359 360.458 83.071ZM343.627 98.3629V81.1832C343.627 76.5201 345.651 72.4182 349.263 70.0161C343.648 71.6153 339.532 76.7712 339.532 82.8978V100.077H366.342C366.342 100.077 366.342 99.4075 366.342 98.3629H343.627Z" fill="#1B5FA9"/>
</g>
<path d="M463.645 458.214H237.145C229.921 458.214 224.064 452.357 224.064 445.133V114.059C224.064 106.836 229.92 100.979 237.145 100.979H463.644C470.867 100.979 476.724 106.834 476.724 114.059V445.133C476.724 452.358 470.869 458.214 463.645 458.214Z" fill="#3E89CC"/>
<path d="M462.081 114.991H238.711V444.204H462.081V114.991Z" fill="#C3ECFE"/>
<path d="M453.492 125.048H247.299V434.145H453.492V125.048Z" fill="white"/>
<path d="M431.659 106.893V120.32H269.127V106.893C269.127 105.913 269.275 104.973 269.557 104.087C270.752 100.247 274.337 97.4673 278.553 97.4673H422.233C427.443 97.4673 431.659 101.683 431.659 106.893Z" fill="#11345A"/>
<path opacity="0.45" d="M431.659 116.963V120.32H269.127V110.599C269.127 107.994 269.275 105.846 269.557 104.087C270.752 100.247 274.337 97.4673 278.553 97.4673H279.707C277.223 99.8573 275.411 103.509 275.411 107.242V116.963H431.659Z" fill="#1B5FA9"/>
<g opacity="0.15">
<path d="M304.484 157.909H337.978" stroke="#0964AF" stroke-width="4.19119" stroke-miterlimit="10" stroke-linecap="round" stroke-linejoin="round"/>
<path d="M413.139 168.586H438.605" stroke="#0964AF" stroke-width="4.19119" stroke-miterlimit="10" stroke-linecap="round" stroke-linejoin="round"/>
<path d="M304.484 168.586H402.104" stroke="#0964AF" stroke-width="4.19119" stroke-miterlimit="10" stroke-linecap="round" stroke-linejoin="round"/>
<path d="M304.484 179.264H438.606" stroke="#0964AF" stroke-width="4.19119" stroke-miterlimit="10" stroke-linecap="round" stroke-linejoin="round"/>
<path d="M395.974 189.942H438.605" stroke="#0964AF" stroke-width="4.19119" stroke-miterlimit="10" stroke-linecap="round" stroke-linejoin="round"/>
<path d="M304.484 189.942H385.364" stroke="#0964AF" stroke-width="4.19119" stroke-miterlimit="10" stroke-linecap="round" stroke-linejoin="round"/>
<path d="M348.969 157.909H438.606" stroke="#0964AF" stroke-width="4.19119" stroke-miterlimit="10" stroke-linecap="round" stroke-linejoin="round"/>
</g>
<g opacity="0.15">
<path d="M304.484 308.744H337.978" stroke="#0964AF" stroke-width="4.19119" stroke-miterlimit="10" stroke-linecap="round" stroke-linejoin="round"/>
<path d="M413.139 319.422H438.605" stroke="#0964AF" stroke-width="4.19119" stroke-miterlimit="10" stroke-linecap="round" stroke-linejoin="round"/>
<path d="M304.484 319.422H402.104" stroke="#0964AF" stroke-width="4.19119" stroke-miterlimit="10" stroke-linecap="round" stroke-linejoin="round"/>
<path d="M304.484 330.1H438.606" stroke="#0964AF" stroke-width="4.19119" stroke-miterlimit="10" stroke-linecap="round" stroke-linejoin="round"/>
<path d="M395.974 340.777H438.605" stroke="#0964AF" stroke-width="4.19119" stroke-miterlimit="10" stroke-linecap="round" stroke-linejoin="round"/>
<path d="M304.484 340.777H385.364" stroke="#0964AF" stroke-width="4.19119" stroke-miterlimit="10" stroke-linecap="round" stroke-linejoin="round"/>
<path d="M348.969 308.744H438.606" stroke="#0964AF" stroke-width="4.19119" stroke-miterlimit="10" stroke-linecap="round" stroke-linejoin="round"/>
</g>
<g opacity="0.15">
<path d="M304.484 384.163H337.978" stroke="#0964AF" stroke-width="4.19119" stroke-miterlimit="10" stroke-linecap="round" stroke-linejoin="round"/>
<path d="M413.139 394.84H438.605" stroke="#0964AF" stroke-width="4.19119" stroke-miterlimit="10" stroke-linecap="round" stroke-linejoin="round"/>
<path d="M304.484 394.84H402.104" stroke="#0964AF" stroke-width="4.19119" stroke-miterlimit="10" stroke-linecap="round" stroke-linejoin="round"/>
<path d="M304.484 405.519H438.606" stroke="#0964AF" stroke-width="4.19119" stroke-miterlimit="10" stroke-linecap="round" stroke-linejoin="round"/>
<path d="M395.974 416.196H438.605" stroke="#0964AF" stroke-width="4.19119" stroke-miterlimit="10" stroke-linecap="round" stroke-linejoin="round"/>
<path d="M304.484 416.196H385.364" stroke="#0964AF" stroke-width="4.19119" stroke-miterlimit="10" stroke-linecap="round" stroke-linejoin="round"/>
<path d="M348.969 384.163H438.606" stroke="#0964AF" stroke-width="4.19119" stroke-miterlimit="10" stroke-linecap="round" stroke-linejoin="round"/>
</g>
<path d="M290.351 185.39H265.29C263.731 185.39 262.468 184.127 262.468 182.568V157.507C262.468 155.948 263.731 154.685 265.29 154.685H290.35C291.909 154.685 293.172 155.948 293.172 157.507V182.568C293.174 184.127 291.91 185.39 290.351 185.39Z" stroke="#2396B5" stroke-width="1.55295" stroke-miterlimit="10"/>
<path d="M422.249 262.355H278.91C269.993 262.355 262.767 261.106 262.767 259.565V234.79C262.767 233.249 269.993 232 278.91 232H422.249C431.166 232 438.393 233.249 438.393 234.79V259.565C438.393 261.106 431.166 262.355 422.249 262.355Z" stroke="#2396B5" stroke-width="1.55295" stroke-miterlimit="10"/>
<path d="M290.352 338.413H265.292C263.733 338.413 262.47 337.149 262.47 335.59V310.53C262.47 308.972 263.733 307.708 265.292 307.708H290.352C291.911 307.708 293.174 308.972 293.174 310.53V335.59C293.174 337.149 291.911 338.413 290.352 338.413Z" stroke="#2396B5" stroke-width="1.55295" stroke-miterlimit="10"/>
<path d="M290.351 414.925H265.29C263.731 414.925 262.468 413.661 262.468 412.102V387.043C262.468 385.484 263.731 384.22 265.29 384.22H290.35C291.909 384.22 293.172 385.484 293.172 387.043V412.102C293.174 413.661 291.91 414.925 290.351 414.925Z" stroke="#2396B5" stroke-width="1.55295" stroke-miterlimit="10"/>
<path d="M180.911 262.787C180.911 262.787 181.488 266.619 181.853 266.953C181.853 266.953 181.487 267.593 180.393 267.653" fill="#FFB392"/>
<path opacity="0.4" d="M209.62 458.579C209.62 460.173 195.28 461.464 177.592 461.464C159.903 461.464 145.563 460.172 145.563 458.579C145.563 456.986 159.903 455.695 177.592 455.695C195.28 455.695 209.62 456.987 209.62 458.579Z" fill="#A1D7E5"/>
<path d="M192.228 280.677L185.149 311.768C184.956 312.615 185.528 313.448 186.388 313.571L208.42 316.735C209.187 316.845 209.911 316.348 210.083 315.592L217.161 284.501C217.355 283.654 216.783 282.821 215.922 282.698L193.89 279.534C193.123 279.424 192.399 279.921 192.228 280.677Z" fill="#57C6F2"/>
<path d="M193.606 281.681L186.828 311.448L208.704 314.59L215.481 284.821L193.606 281.681Z" fill="#E5F8FF"/>
<path d="M213.167 287.014L194.577 284.345" stroke="#A1D2F0" stroke-width="0.770969" stroke-miterlimit="10" stroke-linecap="round" stroke-linejoin="round"/>
<path d="M212.542 289.827L193.952 287.158" stroke="#A1D2F0" stroke-width="0.770969" stroke-miterlimit="10" stroke-linecap="round" stroke-linejoin="round"/>
<path d="M204.805 292.16L193.188 290.492" stroke="#A1D2F0" stroke-width="0.770969" stroke-miterlimit="10" stroke-linecap="round" stroke-linejoin="round"/>
<path d="M203.977 294.579L192.36 292.91" stroke="#A1D2F0" stroke-width="0.770969" stroke-miterlimit="10" stroke-linecap="round" stroke-linejoin="round"/>
<path d="M203.151 296.997L191.534 295.328" stroke="#A1D2F0" stroke-width="0.770969" stroke-miterlimit="10" stroke-linecap="round" stroke-linejoin="round"/>
<path d="M207.413 310.362L195.795 308.693" stroke="#A1D2F0" stroke-width="0.770969" stroke-miterlimit="10" stroke-linecap="round" stroke-linejoin="round"/>
<path d="M183.744 312.139C184.992 311.551 185.919 310.463 186.807 309.407C187.682 308.365 188.558 307.323 189.433 306.281C189.778 305.87 190.141 305.42 190.18 304.884C188.712 304.765 187.767 306.672 186.299 306.784C186.983 304.367 187.964 302.037 189.214 299.859C189.519 299.327 189.851 298.708 189.635 298.135C188.049 298.74 186.713 299.868 185.557 301.113C184.745 301.987 184.005 302.928 183.347 303.923C181.409 306.854 180.21 310.219 179.393 313.636" fill="#F2A181"/>
<path d="M177.429 337.181L161.698 323.909C161.698 323.909 154.377 333.838 157.135 343.418C158.491 348.128 160.193 350.464 160.933 352.7C161.623 354.788 166.359 384.346 166.006 386.506C165.653 388.668 163.11 394.714 162.14 401.073C160.973 408.721 161.171 433.637 160.266 440.244C159.361 446.85 165.462 447.969 165.798 445.733C168.666 426.629 176.24 396.859 177.299 387.309C178.358 377.757 177.929 360.267 177.429 337.181Z" fill="#FFBE9D"/>
<path d="M177.475 356.005L170.634 371.704C173.518 376.577 175.185 382.327 175.407 388.159C175.521 391.188 175.255 394.222 175.339 397.251C175.344 397.466 175.375 397.697 175.431 397.911C176.348 393.421 177.032 389.719 177.299 387.309C178.048 380.562 178.052 369.836 177.814 355.989C177.7 355.993 177.589 355.988 177.475 356.005Z" fill="#F2A181"/>
<path d="M166.855 439.597C166.855 439.597 165.39 446.529 165.785 447.411C166.18 448.295 167.596 450.862 169.048 451.791C170.57 452.764 173.943 453.923 174.213 454.345C174.483 454.768 174.5 455.383 174.02 455.76C172.778 456.736 170.621 457.211 169.211 456.979C164.638 456.224 164.166 454.202 161.502 453.879C161.042 453.822 160.19 454.503 158.917 453.852C157.644 453.201 157.027 452.025 157.135 450.918C157.325 449.009 158.396 447.435 159.16 446.023C159.924 444.61 160.461 438.148 160.461 438.148" fill="#FFBE9D"/>
<path d="M174.377 456.095C174.71 455.524 174.796 454.661 174.485 454.45C174.055 454.158 172.525 453.145 171.638 452.737C170.751 452.329 169.345 451.969 169.841 452.236C170.336 452.503 169.424 453.505 168.593 453.454C165.727 453.278 163.613 451.374 161.98 450.965C159.624 450.375 158.637 447.593 158.534 447.142C158.088 447.425 157.051 449.665 156.842 450.37C156.653 451.006 156.312 452.17 156.493 452.834C156.618 453.292 156.896 454.214 156.755 455.183C156.755 455.183 157.219 455.541 158.449 455.794C159.228 455.955 160.273 455.821 160.273 455.821L160.475 454.342C160.475 454.342 161.117 454.316 161.933 454.485C162.75 454.654 164.082 455.431 164.161 455.526C164.489 455.917 164.75 456.628 165.183 456.847C166.328 457.424 167.483 457.7 168.942 457.784C172.014 457.963 173.808 457.07 174.377 456.095Z" fill="#1B227A"/>
<path d="M198.91 455.806C198.572 455.433 194.928 454.84 193.219 454.127C191.59 453.446 189.618 451.259 189.234 450.331C188.85 449.403 188.938 444.7 188.987 442.725C189.328 429.122 191.841 395.88 192.205 387.919C192.837 374.082 191.041 359.8 185.717 337.587L165.894 322.373C165.894 322.373 160.342 332.694 162.201 342.562C163.279 348.287 168.029 349.168 168.831 351.392C169.634 353.617 181.629 389.492 181.629 389.492C181.629 389.492 179.295 397.248 179.159 405.746C179.044 412.999 182.334 434.879 182.943 443.215C183.016 444.843 183.295 448.742 182.816 449.984C182.227 451.506 180.728 453.293 180.804 455.21C180.847 456.322 181.651 457.384 183.057 457.82C184.462 458.257 185.244 457.444 185.728 457.424C188.522 457.309 189.297 459.23 194.122 459.229C195.61 459.229 197.768 458.406 198.912 457.238C199.352 456.786 199.247 456.181 198.91 455.806Z" fill="#FFBE9D"/>
<path d="M199.326 457.51C199.589 456.891 199.554 456.025 199.205 455.867C198.72 455.648 196.999 454.896 196.026 454.638C195.052 454.379 193.551 454.254 194.1 454.438C194.649 454.622 193.849 455.761 192.986 455.845C190.004 456.141 187.553 454.602 185.811 454.466C183.296 454.27 182.373 451.68 182.201 451.252C181.781 451.605 180.541 453.988 180.422 454.72C180.316 455.381 180.13 456.586 180.41 457.213C180.605 457.646 181.021 458.512 181.012 459.493C181.012 459.493 181.541 459.77 182.846 459.82C183.672 459.852 184.732 459.547 184.732 459.547V458.05C184.732 458.05 185.39 457.921 186.256 457.953C187.122 457.987 188.191 458.429 188.715 458.822C189.124 459.131 189.555 459.65 190.039 459.771C191.434 460.122 192.437 460.222 193.954 460.068C197.151 459.743 198.876 458.567 199.326 457.51Z" fill="#1B227A"/>
<path d="M162.114 322.241C160.769 323.718 155.974 331.708 155.923 338.211C155.872 344.713 157.945 348.943 158.393 350.241C159.621 353.795 161.904 356.973 161.904 357.623C161.904 358.273 165.479 358.723 173.062 358.246C187.073 357.364 192.221 354.735 192.221 354.735C192.221 354.735 192.679 348.906 191.242 336.26C190.56 330.254 185.446 320.744 185.446 320.744" fill="#1B227A"/>
<path d="M149.333 296.258C149.333 296.258 151.59 307.471 152.182 309.466C152.774 311.462 155.703 324.131 158.477 323.911C161.252 323.691 176.45 311.002 176.45 311.002L174.298 306.698L160.92 313.076C160.92 313.076 159.712 298.593 158.651 295.144" fill="#FFBE9D"/>
<path d="M154.507 303.16C155.922 308.165 158.825 313.441 159.694 317.322C159.868 318.102 169.131 314.734 169.153 311.255" fill="#F2A181"/>
<path d="M158.394 280.716C158.394 280.716 153.958 281.189 151.709 282.91C145.973 287.298 150.412 303.229 150.412 303.229C150.412 303.229 150.128 304.079 153.979 303.863C157.83 303.647 160.917 302.551 160.917 302.551L159.804 289.499" fill="#E8505B"/>
<path d="M153.317 289.735C153.317 289.735 152.83 299.101 154.525 303.827C156.202 303.793 157.667 303.415 157.667 303.415L153.317 289.735Z" fill="#B03D44"/>
<path d="M179.595 251.326C182.268 254.792 181.739 259.667 181.08 263.993C180.747 266.18 180.414 268.369 180.08 270.556C179.921 271.595 179.71 272.731 178.901 273.401C178.084 274.078 176.916 274.066 175.858 274.02C175.869 275.83 175.88 277.641 175.891 279.453C172.793 279.528 169.694 279.54 166.596 279.49C166.595 278.223 166.319 276.955 165.792 275.802C164.276 275.772 163.264 274.252 162.67 272.857C161.986 271.249 161.488 269.568 161.007 267.888C160.368 265.658 159.751 263.393 159.694 261.073C159.635 258.754 160.186 256.342 161.659 254.55C162.664 253.328 164.033 252.461 165.435 251.729C167.356 250.726 169.664 249.935 171.646 250.813" fill="#FFBE9D"/>
<path d="M176.392 267.837C176.025 266.016 176.052 264.99 176.648 263.778C176.846 263.376 177.106 262.997 177.462 262.748C177.944 262.409 178.584 262.344 179.118 262.576C179.465 262.728 179.753 263.011 179.95 263.352C180.582 260.907 180.714 258.301 180.531 255.762C180.243 251.735 177.815 248.623 174.27 247.166C167.709 244.47 158.28 247.134 155.617 253.575C153.604 258.439 154.624 265.461 158.478 269.539C161.89 273.15 166.796 273.68 171.325 272.936C173.642 272.556 177.218 272.784 178.417 269.633C178.509 269.39 178.301 269.147 178.054 269.166C177.113 269.238 176.459 268.174 176.392 267.837Z" fill="#1B227A"/>
<path d="M176.895 259.272C177.139 259.655 177.082 260.168 177.31 260.56C177.694 261.216 178.206 261.454 178.896 261.775C180.009 262.292 179.748 263.912 179.716 264.637C180.557 264.079 180.692 262.558 180.895 261.786C181.123 260.918 181.268 260.028 181.521 259.167C181.766 258.331 182.192 257.541 182.271 256.661C182.544 253.618 180.634 250.042 178.328 248.335C176.648 247.091 174.085 247.142 172.188 248.407C171.389 248.94 170.789 249.744 170.434 250.637C170.282 251.02 170.178 251.467 170.366 251.834" fill="#1B227A"/>
<path d="M161.981 280.756C162.139 279.696 162.426 278.459 163.413 278.04C163.687 277.925 163.987 277.888 164.284 277.855C167.307 277.52 170.349 277.377 173.389 277.425C174.647 277.445 175.948 277.51 177.073 278.071C178.838 278.953 179.808 280.854 180.661 282.633" fill="#B03D44"/>
<path d="M187.585 319.635C187.162 319.01 186.187 318.263 185.836 317.574C184.997 315.924 184.263 308.973 184.551 307.198C184.86 305.294 186.545 304.271 187.305 300.035C188.284 294.578 186.047 290.336 184.796 288.52C183.028 285.951 184.076 285.966 183.471 282.819C183.362 282.252 183.234 281.647 182.846 281.252C182.464 280.863 179.828 279.658 179.311 279.578C174.397 278.816 171.507 279.411 166.539 279.629C164.082 279.736 161.628 280.023 159.215 280.555C156.544 281.144 154.218 281.852 153.668 285.476C152.818 291.082 153.533 296.748 155.237 302.065C156.366 305.588 163.11 317.78 161.439 320.139C161.057 320.678 160.101 321.702 159.986 322.374C159.563 324.838 165.13 325.704 167.513 325.9C171.142 326.198 175.308 325.998 178.947 325.828C181.704 325.699 187.734 324.736 188.162 321.331C188.245 320.664 187.915 320.124 187.585 319.635Z" fill="#E8505B"/>
<path d="M186.539 301.089C186.54 302.08 185.985 303.409 185.807 303.931C185.115 304.287 182.374 304.877 180.8 304.158C180.455 300.883 178.536 294.578 178.536 294.578C178.536 294.578 186.537 300.172 186.539 301.089Z" fill="#B03D44"/>
<path d="M183.017 298.804C183.017 298.804 192.094 320.742 196.034 320.742C198.899 320.742 205.924 300.49 205.924 300.49L201.485 298.389L196.535 306.871L191.522 291.051" fill="#FFBE9D"/>
<path d="M200.602 299.899C200.602 299.899 202.073 297.581 201.966 295.938C201.924 295.311 201.552 292.329 201.864 291.742C202.175 291.155 202.922 289.237 203.347 288.863C203.774 288.49 205.351 287.89 205.736 288.157C206.121 288.424 206.602 287.197 207.241 287.305C207.88 287.411 208.413 287.944 208.413 288.53C208.413 289.117 209.266 289.223 209.373 289.65C209.479 290.077 209.427 290.45 209.587 290.77C209.747 291.09 210.218 290.931 210.387 291.73C210.541 292.46 210.333 292.53 210.387 292.902C210.441 293.275 210.76 293.241 210.654 293.951C210.548 294.661 210.061 295.584 209.635 296.382C209.208 297.181 208.327 298.183 207.159 298.889C206.582 299.238 206.266 299.848 205.716 300.883" fill="#FFBE9D"/>
<path d="M203.044 282.947C202.931 282.772 202.622 282.48 202.261 282.735C201.899 282.99 202.009 283.429 202.087 283.606C202.166 283.783 204.771 289.681 204.771 289.681C204.771 289.681 204.988 289.93 205.403 289.565C205.854 289.168 205.709 288.969 205.709 288.969C205.709 288.969 203.155 283.122 203.044 282.947Z" fill="#1B227A"/>
<path d="M205.87 288.579C205.358 289.491 204.767 289.783 204.233 290.286C203.815 290.679 203.866 290.931 203.407 291.336C204.214 291.275 204.076 290.798 205.123 290.044C205.608 289.695 206.109 289.315 206.204 288.72C206.236 288.515 205.993 288.404 205.87 288.579Z" fill="#F2A181"/>
<path d="M174.666 279.24C177.03 279.362 183.913 278.155 187.737 282.156C190.941 285.507 192.777 294.294 194.066 297.857C190.856 301.129 187.764 303.768 182.901 302.706C182.717 302.569 180.304 294.975 178.548 294.299" fill="#E8505B"/>
<path d="M192.234 348.905C192.234 348.905 193.795 386.439 193.511 389.175C193.226 391.911 190.181 443.732 190.181 443.732C190.181 443.732 183.928 444.827 180.183 443.732C180.183 443.732 175.352 403.377 180.183 390.802L178.036 378.753C178.036 378.753 178.357 387.715 178.036 389.54C177.717 391.365 168.053 442.455 168.053 442.455C168.053 442.455 161.66 442.285 158.741 439.724C158.741 439.724 157.83 404.228 164.49 389.297L158.396 350.24L161.907 340.301L192.234 348.905Z" fill="#1B227A"/>
<path d="M178.036 378.752C177.143 372.98 171.635 352.505 171.4 352.012C168.389 349.679 165.637 347.622 164.636 345.676C166.281 350.613 169.449 350.868 170.635 353.424C173.563 359.732 171.326 358.34 178.165 379.476" fill="#170D54"/>
<path d="M151.144 278.99C151.003 280.986 151.412 282.981 151.444 284.983C151.476 286.985 151.046 289.144 149.576 290.503C148.106 291.862 145.378 291.916 144.333 290.208C145.39 292.415 147.666 293.9 150.074 294.338C152.482 294.776 154.994 294.256 157.219 293.237C163.132 290.527 167.07 284.331 166.886 277.812C166.736 272.453 162.666 267.275 156.982 270.092C153.651 271.743 151.405 275.309 151.144 278.99Z" fill="#1B227A"/>
</svg>
