<svg width="15" height="17" viewBox="0 0 15 17" fill="none" xmlns="http://www.w3.org/2000/svg">
<path d="M11.4292 6.35V4.542C11.4153 3.53324 11.0054 2.57037 10.2879 1.86114C9.57045 1.1519 8.60291 0.753156 7.59405 0.750925C6.5852 0.748694 5.61591 1.14317 4.8953 1.84922C4.17469 2.55528 3.76054 3.51631 3.74219 4.525V6.35101" stroke="#868B96" stroke-width="1.2" stroke-linecap="round" stroke-linejoin="round"/>
<path fill-rule="evenodd" clip-rule="evenodd" d="M10.8041 16.296H4.36406C3.51537 16.296 2.70144 15.9589 2.10132 15.3587C1.5012 14.7586 1.16406 13.9447 1.16406 13.096V9.481C1.16406 8.63231 1.5012 7.81838 2.10132 7.21826C2.70144 6.61815 3.51537 6.28101 4.36406 6.28101H10.8041C11.6528 6.28101 12.4667 6.61815 13.0668 7.21826C13.6669 7.81838 14.0041 8.63231 14.0041 9.481V13.096C14.0041 13.9447 13.6669 14.7586 13.0668 15.3587C12.4667 15.9589 11.6528 16.296 10.8041 16.296Z" stroke="#868B96" stroke-width="1.2" stroke-linecap="round" stroke-linejoin="round"/>
<path d="M7.58594 10.3574V12.2294" stroke="#868B96" stroke-width="1.2" stroke-linecap="round" stroke-linejoin="round"/>
</svg>
