<svg width="24" height="24" viewBox="0 0 24 24" fill="none" xmlns="http://www.w3.org/2000/svg">
<path d="M9.68425 20.777C10.0833 21.159 10.0973 21.793 9.71525 22.191C9.51925 22.396 9.25625 22.5 8.99325 22.5C8.74425 22.5 8.49525 22.408 8.30225 22.223L2.93825 17.087C-0.976747 13.172 -0.976747 6.828 2.92225 2.929C4.81125 1.04 7.32225 0 9.99325 0C12.6643 0 15.1753 1.04 17.0643 2.929C19.2243 5.089 20.2693 8.072 19.9313 11.111C19.8703 11.66 19.3843 12.049 18.8273 11.995C18.2783 11.933 17.8833 11.439 17.9443 10.891C18.2143 8.458 17.3783 6.073 15.6503 4.344C14.1393 2.833 12.1303 2.001 9.99325 2.001C7.85625 2.001 5.84725 2.833 4.33625 4.344C1.21725 7.463 1.21725 12.539 4.33625 15.658L9.68525 20.778L9.68425 20.777ZM9.99325 14C7.78725 14 5.99325 12.206 5.99325 10C5.99325 7.794 7.78725 6 9.99325 6C12.1993 6 13.9933 7.794 13.9933 10C13.9933 12.206 12.1993 14 9.99325 14ZM11.9933 10C11.9933 8.897 11.0963 8 9.99325 8C8.89025 8 7.99325 8.897 7.99325 10C7.99325 11.103 8.89025 12 9.99325 12C11.0963 12 11.9933 11.103 11.9933 10ZM23.9933 17V21C23.9933 22.654 22.6473 24 20.9933 24H14.9933C13.3393 24 11.9933 22.654 11.9933 21V17C11.9933 15.346 13.3393 14 14.9933 14H20.9933C22.6473 14 23.9933 15.346 23.9933 17ZM15.5793 16L17.2863 17.707C17.6643 18.086 18.3233 18.086 18.7003 17.707L20.4073 16H15.5793ZM21.9933 21V17.242L20.1143 19.121C19.5483 19.687 18.7953 20 17.9933 20C17.1913 20 16.4383 19.688 15.8713 19.121L13.9933 17.242V21C13.9933 21.552 14.4423 22 14.9933 22H20.9933C21.5443 22 21.9933 21.552 21.9933 21Z" fill="#222222"/>
</svg>
