<svg width="24" height="24" viewBox="0 0 24 24" fill="none" xmlns="http://www.w3.org/2000/svg">
<path d="M12.9821 1.00312C12.9821 0.73747 13.0876 0.482698 13.2754 0.294853C13.4633 0.107008 13.718 0.00147752 13.9837 0.00147752C16.6393 0.00439391 19.1853 1.06063 21.0631 2.93845C22.9409 4.81627 23.9971 7.3623 24 10.0179C24 10.2836 23.8945 10.5384 23.7066 10.7262C23.5188 10.914 23.264 11.0196 22.9984 11.0196C22.7327 11.0196 22.478 10.914 22.2901 10.7262C22.1023 10.5384 21.9967 10.2836 21.9967 10.0179C21.9944 7.89344 21.1494 5.85665 19.6471 4.3544C18.1449 2.85216 16.1082 2.00715 13.9837 2.00477C13.718 2.00477 13.4633 1.89924 13.2754 1.71139C13.0876 1.52355 12.9821 1.26878 12.9821 1.00312ZM13.9837 6.01135C15.0463 6.01135 16.0654 6.43347 16.8167 7.18485C17.5681 7.93623 17.9902 8.95532 17.9902 10.0179C17.9902 10.2836 18.0957 10.5384 18.2836 10.7262C18.4714 10.914 18.7262 11.0196 18.9918 11.0196C19.2575 11.0196 19.5123 10.914 19.7001 10.7262C19.8879 10.5384 19.9935 10.2836 19.9935 10.0179C19.9919 8.4245 19.3582 6.89679 18.2315 5.77007C17.1048 4.64334 15.5771 4.00965 13.9837 4.00806C13.718 4.00806 13.4633 4.11359 13.2754 4.30143C13.0876 4.48928 12.9821 4.74405 12.9821 5.0097C12.9821 5.27536 13.0876 5.53013 13.2754 5.71797C13.4633 5.90582 13.718 6.01135 13.9837 6.01135ZM23.0915 16.768C23.672 17.3501 23.9979 18.1386 23.9979 18.9606C23.9979 19.7827 23.672 20.5712 23.0915 21.1532L22.18 22.2039C13.9767 30.0578 -5.98582 10.1001 1.74677 1.87055L2.89864 0.868902C3.48136 0.304653 4.2628 -0.00748812 5.07389 9.95611e-06C5.88498 0.00750804 6.66051 0.334042 7.2327 0.908968C7.26375 0.940019 9.11977 3.35098 9.11977 3.35098C9.6705 3.92956 9.97707 4.69812 9.97577 5.49691C9.97446 6.29569 9.66538 7.06325 9.11276 7.64002L7.95287 9.09842C8.59477 10.6581 9.53852 12.0756 10.7299 13.2694C11.9213 14.4632 13.3368 15.4098 14.8952 16.0548L16.3626 14.8879C16.9394 14.3357 17.7068 14.027 18.5054 14.0259C19.3039 14.0248 20.0722 14.3313 20.6505 14.8819C20.6505 14.8819 23.0605 16.737 23.0915 16.768ZM21.7133 18.2244C21.7133 18.2244 19.3164 16.3804 19.2853 16.3493C19.079 16.1447 18.8001 16.0299 18.5096 16.0299C18.219 16.0299 17.9401 16.1447 17.7338 16.3493C17.7068 16.3774 15.6865 17.987 15.6865 17.987C15.5503 18.0954 15.3883 18.1664 15.2163 18.1931C15.0444 18.2198 14.8685 18.2013 14.7059 18.1393C12.687 17.3876 10.8533 16.2108 9.32895 14.6887C7.80456 13.1665 6.62511 11.3345 5.87048 9.31678C5.80357 9.15196 5.78176 8.9723 5.80728 8.79626C5.83281 8.62022 5.90475 8.45416 6.01572 8.31513C6.01572 8.31513 7.62534 6.29381 7.65238 6.26777C7.85698 6.06142 7.97178 5.78259 7.97178 5.492C7.97178 5.2014 7.85698 4.92257 7.65238 4.71622C7.62133 4.68617 5.77733 2.28723 5.77733 2.28723C5.56789 2.09943 5.29455 1.99885 5.01333 2.00612C4.73212 2.01338 4.46433 2.12793 4.26487 2.3263L3.11299 3.32794C-2.53821 10.1231 14.761 26.4629 20.7157 20.8357L21.6281 19.784C21.842 19.5859 21.9704 19.3125 21.9863 19.0214C22.0022 18.7304 21.9043 18.4446 21.7133 18.2244Z" fill="#222222"/>
</svg>
