<svg width="25" height="23" viewBox="0 0 25 23" fill="none" xmlns="http://www.w3.org/2000/svg">
<path d="M19.7917 -0.00012207H5.20833C3.82751 0.00153796 2.50371 0.5528 1.52731 1.53274C0.550919 2.51269 0.00165402 3.8413 0 5.22715L0 17.7726C0.00165402 19.1585 0.550919 20.4871 1.52731 21.467C2.50371 22.447 3.82751 22.9982 5.20833 22.9999H19.7917C21.1725 22.9982 22.4963 22.447 23.4727 21.467C24.4491 20.4871 24.9983 19.1585 25 17.7726V5.22715C24.9983 3.8413 24.4491 2.51269 23.4727 1.53274C22.4963 0.5528 21.1725 0.00153796 19.7917 -0.00012207ZM5.20833 2.09079H19.7917C20.4154 2.09202 21.0245 2.28055 21.5406 2.63213C22.0567 2.9837 22.4561 3.48223 22.6875 4.06356L14.7104 12.0707C14.1234 12.6575 13.3286 12.987 12.5 12.987C11.6714 12.987 10.8766 12.6575 10.2896 12.0707L2.3125 4.06356C2.5439 3.48223 2.94335 2.9837 3.45942 2.63213C3.9755 2.28055 4.5846 2.09202 5.20833 2.09079ZM19.7917 20.909H5.20833C4.37953 20.909 3.58468 20.5785 2.99862 19.9903C2.41257 19.4022 2.08333 18.6044 2.08333 17.7726V6.79533L8.81667 13.549C9.7944 14.5278 11.119 15.0775 12.5 15.0775C13.881 15.0775 15.2056 14.5278 16.1833 13.549L22.9167 6.79533V17.7726C22.9167 18.6044 22.5874 19.4022 22.0014 19.9903C21.4153 20.5785 20.6205 20.909 19.7917 20.909Z" fill="#222222"/>
</svg>
