<svg width="18" height="20" viewBox="0 0 18 20" fill="none" xmlns="http://www.w3.org/2000/svg">
<path d="M10.6378 20C10.4607 20 10.2884 19.9415 10.1467 19.8333L6.87291 17.3333C6.77126 17.2557 6.68876 17.1551 6.63194 17.0393C6.57512 16.9236 6.54553 16.796 6.54553 16.6667V11.9833L0.803334 5.40583C0.395521 4.9374 0.129247 4.35901 0.0365182 3.7402C-0.0562109 3.12138 0.02855 2.48846 0.280613 1.91751C0.532677 1.34656 0.941317 0.861882 1.45742 0.521721C1.97352 0.181561 2.57512 0.000395349 3.18992 0L14.8118 0C15.4266 0.000734209 16.028 0.182199 16.5439 0.522589C17.0598 0.862978 17.4682 1.34781 17.72 1.91882C17.9718 2.48983 18.0563 3.12273 17.9633 3.74146C17.8703 4.36018 17.6039 4.93841 17.1959 5.40667L11.4562 11.9833V19.1667C11.4562 19.3877 11.37 19.5996 11.2165 19.7559C11.063 19.9122 10.8548 20 10.6378 20ZM8.18242 16.25L9.81931 17.5V11.6667C9.81947 11.4626 9.89315 11.2657 10.0264 11.1133L15.9748 4.29917C16.1732 4.0709 16.3026 3.7892 16.3476 3.48788C16.3925 3.18655 16.3511 2.87842 16.2283 2.60046C16.1056 2.32251 15.9066 2.08655 15.6553 1.92091C15.404 1.75527 15.1112 1.66699 14.8118 1.66667H3.18992C2.89073 1.66713 2.59804 1.75546 2.34692 1.92105C2.09581 2.08665 1.89694 2.3225 1.77418 2.60029C1.65141 2.87809 1.60996 3.18605 1.65478 3.48723C1.69961 3.78842 1.82882 4.07004 2.02691 4.29833L7.97617 11.1133C8.1091 11.2659 8.18248 11.4627 8.18242 11.6667V16.25Z" fill="#8897AD"/>
</svg>
