<svg width="24" height="22" viewBox="0 0 24 22" fill="none" xmlns="http://www.w3.org/2000/svg">
<path d="M23 7C23.552 7 24 6.553 24 6V5C24 2.243 21.757 0 19 0H9C6.243 0 4 2.243 4 5V13C4 15.757 6.243 18 9 18H19C21.757 18 24 15.757 24 13V12C24 11.447 23.552 11 23 11C21.897 11 21 10.103 21 9C21 7.897 21.897 7 23 7ZM22 12.873V13C22 14.654 20.654 16 19 16H9C7.346 16 6 14.654 6 13V5C6 3.346 7.346 2 9 2H19C20.654 2 22 3.346 22 5V5.127C20.277 5.571 19 7.14 19 9C19 10.86 20.277 12.429 22 12.873ZM19 21C19 21.553 18.552 22 18 22H9C6.596 22 4.336 21.063 2.636 19.364C0.936 17.664 0 15.403 0 13V7C0 6.447 0.448 6 1 6C1.552 6 2 6.447 2 7V13C2 14.87 2.728 16.628 4.05 17.949C5.372 19.271 7.131 20 9 20H18C18.552 20 19 20.447 19 21ZM17 9C17 9.552 16.552 10 16 10H14.5L12.589 12.421C12.394 12.778 12.02 13 11.614 13H11.476C11.094 13 10.832 12.616 10.97 12.26L11.849 10H10.348C9.906 10 9.486 9.805 9.201 9.467L8.105 8.167C7.808 7.647 8.183 7 8.782 7C8.989 7 9.187 7.082 9.333 7.228L10.443 8H11.866L10.975 5.742C10.834 5.386 11.097 5 11.48 5H11.597C12.004 5 12.378 5.222 12.572 5.579L14.501 8H16.001C16.553 8 17 8.448 17 9Z" fill="#222222"/>
</svg>
