<svg width="24" height="24" viewBox="0 0 24 24" fill="none" xmlns="http://www.w3.org/2000/svg">
<path d="M19 3.99988H15V2.99988C15 1.34588 13.654 -0.00012207 12 -0.00012207C10.346 -0.00012207 9 1.34588 9 2.99988V3.99988H5C2.243 3.99988 0 6.24288 0 8.99988V18.9999C0 21.7569 2.243 23.9999 5 23.9999H19C21.757 23.9999 24 21.7569 24 18.9999V8.99988C24 6.24288 21.757 3.99988 19 3.99988ZM11 2.99988C11 2.44788 11.449 1.99988 12 1.99988C12.551 1.99988 13 2.44788 13 2.99988V4.99488C13 4.99488 13 4.99788 13 4.99988C13 5.00188 13 5.00288 13 5.00488V5.99988H10.999V2.99988H11ZM22 18.9999C22 20.6539 20.654 21.9999 19 21.9999H5C3.346 21.9999 2 20.6539 2 18.9999V8.99988C2 7.34588 3.346 5.99988 5 5.99988H9C9 7.10288 9.897 7.99988 11 7.99988H13C14.103 7.99988 15 7.10288 15 5.99988H19C20.654 5.99988 22 7.34588 22 8.99988V18.9999ZM9.5 12.4999C9.5 11.1189 10.619 9.99988 12 9.99988C13.381 9.99988 14.5 11.1189 14.5 12.4999C14.5 13.8809 13.381 14.9999 12 14.9999C10.619 14.9999 9.5 13.8809 9.5 12.4999ZM16.968 19.7509C17.106 20.2849 16.784 20.8309 16.249 20.9689C15.711 21.1079 15.169 20.7839 15.031 20.2489C14.7 18.9669 13.397 17.9999 11.999 17.9999C10.601 17.9999 9.297 18.9669 8.967 20.2489C8.851 20.6999 8.445 20.9999 7.999 20.9999C7.917 20.9999 7.833 20.9899 7.749 20.9689C7.214 20.8309 6.892 20.2859 7.03 19.7509C7.589 17.5769 9.678 15.9999 11.998 15.9999C14.318 15.9999 16.407 17.5769 16.966 19.7509H16.968Z" fill="#222222"/>
</svg>
